<svg xmlns="http://www.w3.org/2000/svg" viewBox="0 0 4630 420" role="img" aria-label="UMBRA DOMUS"><title>UMBRA DOMUS</title><g id="wm" fill="currentColor" transform="translate(0.000000,420.000000) scale(0.100000,-0.100000)"><path d="M30558 3990 c-48 -4 -102 -13 -120 -19 -18 -6 -66 -15 -106 -21 -40 -5 -91 -19 -112 -30 -22 -11 -53 -20 -69 -20 -76 0 -326 -117 -511 -239 -195 -129 -384 -339 -511 -568 -28 -51 -55 -96 -60 -99 -5 -2 -13 -24 -20 -47 -6 -23 -17 -49 -24 -57 -7 -8 -18 -33 -24 -55 -6 -22 -17 -49 -25 -60 -7 -11 -17 -45 -21 -75 -4 -30 -18 -78 -31 -106 -13 -28 -24 -69 -24 -92 0 -22 -9 -69 -20 -104 -37 -115 -36 -517 0 -613 5 -14 13 -59 16 -98 4 -40 15 -93 26 -118 11 -26 25 -73 33 -105 16 -69 42 -153 56 -174 5 -8 16 -31 25 -50 9 -19 22 -46 30 -60 7 -14 23 -43 34 -65 117 -226 329 -461 535 -592 27 -17 61 -40 75 -50 14 -10 41 -25 61 -34 20 -10 40 -22 43 -28 4 -6 15 -11 24 -11 10 0 38 -11 64 -25 26 -14 55 -25 65 -25 10 0 33 -10 52 -21 19 -12 63 -25 98 -30 35 -5 74 -16 87 -24 13 -9 45 -18 72 -20 27 -3 116 -12 198 -21 208 -23 575 -6 686 32 25 9 72 24 105 34 101 31 158 51 210 76 28 12 55 24 60 26 9 3 34 17 159 93 136 83 244 180 378 340 62 75 121 151 131 168 10 18 31 52 47 77 34 54 96 175 105 209 4 14 16 38 26 55 11 17 19 41 19 54 0 13 11 44 25 70 14 26 25 61 25 78 0 17 9 57 21 90 11 32 25 104 29 159 32 382 34 413 21 522 -6 59 -16 149 -22 200 -5 51 -17 109 -25 129 -8 20 -19 70 -24 111 -4 42 -15 81 -23 91 -9 10 -21 39 -26 64 -6 26 -20 62 -31 80 -11 18 -20 39 -20 46 0 7 -19 45 -41 85 -23 40 -50 88 -61 107 -11 19 -26 42 -34 51 -8 8 -14 19 -14 22 0 16 -100 135 -181 216 -87 88 -151 139 -254 203 -27 17 -66 41 -85 54 -19 12 -46 25 -59 29 -14 4 -38 16 -55 26 -17 11 -38 19 -46 19 -8 0 -35 11 -60 24 -25 13 -66 26 -93 29 -26 4 -61 14 -77 22 -17 9 -67 20 -113 26 -45 5 -107 16 -138 24 -68 18 -361 27 -481 15z m399 -485 c78 -10 140 -23 164 -35 21 -11 51 -20 66 -20 25 0 94 -28 163 -65 14 -8 43 -23 65 -35 87 -44 244 -192 334 -314 38 -51 43 -59 92 -152 14 -27 34 -62 43 -79 9 -16 16 -40 16 -51 0 -12 9 -33 21 -47 12 -16 26 -58 34 -104 7 -43 20 -96 28 -118 25 -67 37 -299 26 -490 -8 -146 -13 -178 -34 -226 -14 -31 -25 -74 -25 -95 0 -22 -9 -54 -22 -74 -11 -19 -25 -54 -29 -78 -5 -24 -18 -55 -29 -69 -11 -14 -20 -33 -20 -42 0 -10 -11 -32 -25 -51 -14 -19 -25 -38 -25 -44 0 -37 -251 -314 -336 -369 -21 -15 -57 -39 -79 -54 -65 -46 -276 -143 -309 -143 -10 0 -41 -10 -69 -22 -49 -22 -65 -23 -307 -23 -223 0 -260 2 -294 18 -22 10 -68 22 -102 26 -34 5 -80 17 -101 26 -87 39 -190 90 -213 106 -14 9 -52 34 -85 55 -71 45 -204 175 -263 256 -23 31 -42 60 -42 64 0 3 -11 19 -25 36 -14 16 -25 36 -25 43 0 8 -11 31 -25 51 -14 20 -25 45 -25 54 0 10 -9 29 -20 43 -12 15 -25 52 -30 84 -5 31 -16 71 -25 88 -8 18 -19 74 -25 125 -6 51 -15 111 -20 134 -5 22 -10 75 -10 116 0 104 36 363 60 430 10 30 20 75 20 100 0 30 8 58 25 85 13 22 25 49 25 60 1 11 19 52 40 90 22 39 47 86 56 105 18 38 33 59 114 158 72 89 134 146 220 205 14 9 48 32 75 52 28 19 55 35 61 35 6 0 22 8 35 19 33 25 144 69 207 81 29 5 66 17 83 25 75 39 367 54 566 30z"/> <path d="M44830 3980 c-242 -25 -302 -34 -360 -55 -36 -13 -81 -26 -100 -29 -35 -6 -47 -11 -185 -77 -144 -69 -296 -193 -352 -287 -80 -136 -104 -187 -142 -309 -29 -96 -31 -110 -31 -260 0 -125 5 -173 20 -232 11 -41 20 -89 20 -106 0 -18 9 -43 19 -57 11 -13 23 -38 27 -54 15 -63 116 -201 218 -297 59 -56 229 -177 248 -177 6 0 21 -9 35 -20 14 -11 36 -20 49 -20 13 0 44 -11 70 -25 31 -16 63 -25 93 -25 26 0 78 -9 117 -20 53 -14 125 -21 295 -28 196 -8 230 -12 269 -30 25 -12 59 -22 76 -22 16 0 45 -11 64 -25 19 -14 39 -25 46 -25 6 0 43 -31 82 -68 93 -92 135 -178 152 -315 16 -126 0 -288 -36 -357 -13 -25 -24 -49 -24 -54 0 -37 -144 -198 -190 -211 -14 -4 -32 -14 -42 -22 -9 -8 -49 -23 -90 -34 -40 -11 -89 -24 -108 -29 -19 -5 -113 -10 -209 -10 -159 0 -184 3 -304 31 -73 17 -141 39 -155 50 -14 10 -30 19 -37 19 -36 0 -196 127 -263 210 -46 56 -60 78 -113 172 -47 85 -68 98 -91 54 -17 -31 -268 -290 -297 -305 -31 -17 -27 -59 9 -95 16 -17 46 -51 66 -76 121 -151 343 -333 446 -365 12 -4 34 -16 47 -26 13 -11 35 -19 49 -19 14 0 48 -11 76 -24 28 -13 75 -27 105 -30 30 -4 68 -14 85 -23 71 -37 385 -52 604 -29 84 9 165 22 180 30 15 8 53 19 84 25 30 5 71 19 89 30 19 12 41 21 49 21 8 0 44 18 80 40 36 21 83 49 104 61 76 41 276 263 276 306 0 5 11 24 25 43 14 19 25 45 25 59 0 14 12 44 25 66 14 22 25 54 25 71 0 16 9 66 21 109 26 99 28 312 5 390 -9 28 -18 77 -22 110 -4 33 -17 83 -30 111 -13 28 -24 59 -24 69 0 11 -11 36 -25 57 -14 21 -36 55 -50 76 -14 21 -25 42 -25 46 0 4 -22 35 -50 67 -74 89 -192 191 -265 229 -16 9 -39 21 -50 27 -70 37 -136 63 -161 63 -16 1 -47 8 -69 16 -80 30 -104 33 -360 43 -286 11 -424 29 -495 67 -25 13 -49 24 -55 24 -15 0 -145 120 -145 133 0 7 -11 33 -24 58 -13 25 -28 63 -32 84 -3 22 -13 52 -20 67 -18 36 -18 140 1 184 8 19 18 59 21 87 14 100 113 235 208 284 17 9 42 24 55 34 13 11 34 19 46 19 12 0 56 11 96 24 90 29 304 42 449 27 106 -11 236 -47 295 -83 81 -48 280 -264 299 -325 14 -43 34 -34 100 47 36 43 113 127 171 186 112 116 115 121 74 174 -11 14 -28 39 -39 55 -21 33 -170 178 -216 211 -16 11 -58 35 -94 53 -36 19 -83 42 -104 54 -22 11 -65 25 -95 32 -31 7 -74 20 -96 29 -22 8 -54 15 -71 16 -18 0 -67 6 -110 14 -99 18 -249 25 -334 16z"/> <path d="M25680 3900 c-173 -3 -515 -4 -759 -3 -322 3 -447 0 -457 -8 -12 -10 -14 -295 -14 -1810 0 -1269 3 -1800 11 -1804 6 -4 346 -9 757 -12 650 -5 761 -3 857 10 61 9 149 21 197 27 48 6 106 19 130 30 24 11 54 20 68 20 14 0 47 11 75 24 27 13 61 29 75 35 45 21 84 41 110 56 14 8 43 23 65 33 22 11 46 27 54 36 7 9 17 16 22 16 23 0 175 130 246 209 116 130 233 291 233 320 0 4 11 22 25 41 14 19 25 41 25 51 0 9 8 27 19 40 10 13 24 42 31 64 7 22 18 50 26 62 7 12 18 43 24 70 6 26 19 66 30 88 17 37 40 134 60 265 5 30 12 168 16 305 7 271 -5 466 -31 528 -8 21 -20 70 -25 109 -4 38 -17 89 -28 112 -11 22 -25 57 -32 76 -33 96 -61 160 -88 210 -17 30 -40 73 -52 95 -61 116 -111 186 -202 277 -81 81 -158 144 -248 202 -25 16 -56 37 -70 46 -14 9 -43 23 -65 30 -22 7 -47 18 -55 26 -9 7 -36 18 -62 23 -25 6 -61 19 -80 30 -18 10 -59 22 -91 25 -32 3 -75 13 -95 22 -38 16 -233 35 -332 32 -30 -1 -197 -4 -370 -8z m528 -476 c51 -13 101 -24 111 -24 10 0 38 -11 62 -23 24 -13 58 -27 74 -31 17 -4 39 -16 50 -26 11 -10 31 -21 45 -25 35 -11 70 -38 163 -131 87 -86 137 -145 137 -162 0 -6 10 -23 23 -39 12 -15 28 -39 35 -53 6 -14 16 -32 22 -40 5 -8 16 -31 25 -50 9 -19 22 -46 30 -60 8 -14 15 -43 15 -65 0 -23 9 -59 20 -80 16 -30 26 -89 41 -239 18 -173 19 -214 9 -310 -6 -61 -15 -154 -20 -206 -5 -53 -13 -108 -19 -122 -6 -15 -17 -66 -25 -114 -9 -48 -23 -95 -31 -104 -9 -10 -21 -35 -26 -56 -15 -53 -65 -159 -84 -174 -8 -7 -15 -17 -15 -23 0 -39 -193 -256 -301 -337 -59 -44 -221 -130 -247 -130 -9 0 -39 -12 -67 -25 -27 -14 -66 -25 -86 -25 -20 0 -76 -7 -123 -15 -73 -13 -166 -14 -574 -10 -365 4 -488 9 -494 18 -13 21 -10 2681 3 2694 9 9 166 12 583 11 569 0 571 0 664 -24z"/> <path d="M455 3890 l-240 -5 0 -1165 c0 -1024 2 -1181 17 -1300 9 -75 24 -156 33 -180 9 -25 22 -72 29 -105 7 -33 22 -78 34 -100 12 -22 22 -45 22 -51 0 -6 8 -22 19 -35 10 -13 22 -35 26 -49 4 -14 15 -34 25 -45 10 -11 24 -32 31 -46 39 -73 142 -190 243 -276 76 -63 292 -193 323 -193 6 0 27 -8 45 -19 18 -10 53 -21 78 -24 25 -4 63 -15 85 -27 22 -11 59 -20 85 -20 25 0 88 -7 140 -15 52 -8 153 -15 225 -15 158 0 412 33 464 61 20 10 49 19 65 19 27 0 50 9 196 78 142 67 358 245 430 355 14 21 36 53 50 72 42 58 70 106 70 119 0 7 9 24 19 38 11 13 24 42 30 63 6 22 20 58 31 80 11 21 20 52 20 67 0 16 10 54 22 86 l23 57 2 1275 c2 751 -1 1281 -6 1289 -7 11 -54 14 -252 13 -208 -1 -244 -3 -258 -17 -14 -14 -16 -140 -21 -1288 l-5 -1272 -27 -50 c-16 -27 -28 -59 -28 -70 0 -12 -11 -36 -25 -55 -14 -19 -25 -39 -25 -44 0 -12 -39 -71 -85 -129 -36 -46 -168 -155 -204 -168 -14 -5 -44 -18 -66 -29 -22 -10 -71 -29 -110 -42 -65 -22 -86 -23 -315 -23 -215 0 -249 2 -277 18 -18 9 -54 20 -80 24 -40 5 -104 34 -229 101 -61 33 -234 232 -234 269 0 6 -9 21 -19 35 -11 13 -23 38 -26 54 -4 16 -19 63 -34 104 l-26 75 -5 1249 c-5 1238 -5 1249 -25 1255 -11 3 -128 4 -260 1z"/> <path d="M4624 3885 c-12 -8 -14 -315 -14 -1809 -1 -1271 3 -1801 10 -1806 6 -4 120 -6 253 -6 l242 1 8 1040 c7 1033 5 1536 -8 1608 -6 33 -5 37 13 37 20 0 72 -52 72 -71 0 -11 43 -109 63 -144 43 -77 81 -150 96 -185 6 -14 15 -32 20 -40 8 -14 29 -58 96 -205 13 -27 28 -61 34 -75 6 -14 15 -32 20 -40 10 -15 49 -98 75 -160 9 -19 20 -42 25 -50 5 -8 38 -73 72 -145 34 -71 71 -141 81 -154 10 -13 18 -31 18 -41 0 -10 8 -28 18 -41 11 -13 24 -39 31 -58 6 -19 18 -42 25 -50 8 -9 19 -35 25 -57 6 -23 17 -47 25 -53 8 -7 17 -23 20 -36 4 -14 17 -41 31 -61 14 -20 25 -42 25 -48 0 -7 11 -27 25 -46 14 -19 25 -41 25 -51 0 -9 8 -27 18 -40 11 -13 24 -39 30 -57 6 -18 20 -45 32 -59 11 -14 20 -33 20 -43 0 -10 9 -28 19 -42 11 -13 23 -38 27 -54 4 -16 18 -45 31 -64 12 -19 23 -44 23 -55 0 -12 11 -36 25 -55 14 -19 25 -40 25 -47 0 -7 12 -37 27 -65 15 -29 31 -62 37 -73 5 -11 20 -38 32 -60 36 -66 52 -99 63 -127 19 -51 72 -27 85 38 4 17 18 46 32 65 13 18 24 40 24 49 0 9 11 31 25 50 14 19 25 39 25 46 0 6 9 23 20 37 12 14 26 41 32 59 6 18 19 44 30 57 10 13 18 31 18 40 0 10 11 32 25 51 14 19 25 42 25 51 0 10 11 30 24 46 13 15 26 42 30 59 4 18 16 40 27 50 10 9 19 22 19 27 0 10 40 99 66 147 7 14 18 36 25 50 24 54 62 136 74 160 8 14 32 63 55 110 23 47 45 92 51 100 5 8 18 33 29 55 11 22 27 51 34 65 8 14 28 57 46 95 17 39 36 77 41 85 5 8 14 26 20 40 6 14 21 48 34 75 13 28 37 82 55 120 17 39 36 77 41 85 5 8 16 31 24 50 9 19 20 42 25 50 6 8 15 26 21 40 21 47 39 85 73 150 18 36 41 81 50 100 9 19 20 42 25 50 6 8 21 42 36 75 14 33 32 71 40 85 8 14 22 42 31 63 9 20 22 37 30 37 19 0 27 -41 14 -75 -15 -41 -14 -2543 1 -2562 9 -10 63 -13 245 -13 128 0 235 4 238 9 3 5 6 820 7 1811 0 1480 -2 1805 -13 1812 -7 5 -35 7 -63 4 -27 -3 -138 -6 -247 -6 l-196 0 -25 -45 c-14 -24 -30 -60 -36 -78 -6 -18 -27 -63 -46 -98 -18 -35 -73 -143 -120 -239 -47 -96 -93 -186 -100 -200 -8 -14 -20 -36 -26 -50 -32 -69 -81 -168 -93 -190 -8 -14 -42 -81 -76 -150 -34 -69 -65 -132 -70 -140 -4 -8 -36 -71 -71 -140 -81 -161 -167 -328 -184 -360 -15 -27 -37 -70 -56 -110 -6 -14 -33 -70 -60 -126 -27 -55 -49 -108 -49 -116 0 -8 -9 -27 -20 -41 -12 -14 -26 -41 -32 -59 -6 -18 -19 -44 -30 -57 -10 -13 -18 -31 -18 -41 0 -10 -9 -29 -20 -43 -12 -14 -26 -41 -32 -59 -6 -18 -19 -44 -30 -57 -10 -13 -18 -31 -18 -40 0 -9 -10 -32 -21 -51 -12 -19 -28 -56 -36 -82 -10 -34 -19 -48 -32 -48 -24 0 -48 28 -57 65 -4 17 -15 42 -26 57 -10 15 -24 42 -30 60 -6 18 -16 40 -23 48 -7 8 -16 26 -19 40 -4 14 -29 70 -55 125 -27 55 -54 111 -60 125 -6 14 -15 32 -20 40 -5 8 -37 74 -71 145 -34 72 -66 137 -71 145 -5 8 -14 26 -20 40 -15 34 -166 331 -196 385 -6 11 -16 31 -22 45 -6 14 -19 39 -28 55 -23 43 -36 70 -78 155 -21 41 -41 82 -46 90 -28 48 -89 179 -89 192 0 8 -11 29 -25 48 -14 19 -25 44 -25 56 0 12 -8 32 -18 45 -21 27 -82 150 -82 165 0 5 -11 26 -25 46 -14 20 -25 42 -25 49 0 11 -79 182 -115 249 -8 14 -25 48 -40 76 -14 29 -32 57 -40 64 -19 15 -561 20 -581 5z"/> <path d="M9950 3885 c-13 -16 -14 -3606 -1 -3614 18 -12 1634 -13 1686 -1 28 6 84 16 125 21 41 6 95 18 120 26 25 8 65 21 90 28 41 12 96 41 190 98 79 48 161 121 221 194 73 90 80 100 115 168 14 28 31 61 39 75 8 14 15 33 15 43 0 10 12 44 27 75 l27 57 1 265 c0 253 -1 267 -21 301 -12 20 -25 51 -29 69 -15 67 -102 206 -175 279 -72 72 -144 118 -221 141 -37 11 -72 27 -79 35 -17 21 -5 43 27 50 125 26 285 173 363 334 70 146 96 294 87 502 -5 126 -36 265 -72 329 -8 14 -21 39 -30 57 -14 30 -43 76 -83 133 -21 30 -103 111 -157 155 -58 48 -230 133 -300 150 -33 7 -91 21 -130 30 -62 14 -164 16 -948 14 -638 -2 -880 -6 -887 -14z m1664 -465 c33 -11 69 -20 81 -20 12 0 36 -11 55 -25 19 -14 39 -25 46 -25 18 0 154 -140 154 -159 0 -9 11 -37 24 -62 33 -62 47 -221 30 -334 -30 -193 -108 -292 -292 -366 l-77 -31 -335 -9 c-420 -11 -817 -9 -836 6 -11 8 -14 97 -17 522 -2 282 0 516 4 520 5 5 255 7 556 5 515 -2 552 -4 607 -22z m151 -1547 c108 -45 129 -57 172 -101 61 -62 101 -143 125 -252 25 -114 27 -241 4 -326 -9 -34 -16 -72 -16 -85 0 -40 -65 -151 -121 -206 -29 -29 -56 -53 -61 -53 -5 0 -24 -11 -41 -23 -36 -26 -160 -64 -252 -78 -77 -11 -1105 -13 -1116 -2 -4 4 -11 261 -14 571 -5 442 -4 567 6 578 11 14 88 15 633 9 l621 -6 60 -26z"/> <path d="M14124 3886 c-12 -10 -14 -248 -14 -1805 0 -1238 3 -1798 10 -1805 11 -11 494 -11 511 0 5 3 9 302 9 698 0 543 3 696 13 703 7 5 195 8 435 7 473 -2 446 3 463 -74 5 -24 19 -54 29 -68 11 -13 20 -32 20 -42 0 -10 9 -28 19 -42 11 -13 23 -38 27 -54 4 -16 17 -47 30 -70 13 -22 24 -50 24 -60 0 -11 11 -35 25 -54 14 -19 25 -41 25 -49 0 -9 11 -38 25 -66 13 -27 25 -56 25 -63 0 -8 9 -26 19 -41 11 -15 23 -40 27 -57 4 -16 17 -49 30 -74 13 -25 24 -51 24 -58 0 -7 11 -30 25 -50 14 -20 25 -46 25 -58 0 -12 8 -32 19 -45 10 -13 22 -35 26 -49 4 -14 18 -43 31 -66 13 -22 24 -50 24 -61 0 -11 9 -31 19 -45 11 -13 24 -43 31 -68 6 -24 23 -58 36 -76 l25 -32 265 0 c291 0 295 1 262 57 -39 68 -138 274 -138 287 0 6 -8 22 -18 35 -11 13 -24 39 -30 57 -6 18 -20 45 -32 59 -11 14 -20 33 -20 43 0 10 -8 28 -19 41 -10 14 -23 41 -29 62 -6 20 -20 49 -31 63 -12 15 -21 33 -21 42 0 8 -8 29 -19 46 -10 17 -24 48 -30 68 -7 20 -19 42 -26 48 -8 7 -20 31 -26 53 -6 23 -19 52 -30 65 -10 14 -19 31 -19 39 0 8 -11 31 -25 51 -14 20 -25 43 -25 52 0 8 -12 38 -25 65 -14 28 -25 57 -25 66 0 9 -14 47 -31 84 -40 89 -35 109 37 141 30 13 67 33 82 43 15 10 52 35 84 55 87 56 211 178 272 270 31 45 56 87 56 92 0 6 11 25 25 44 14 19 25 44 25 57 0 13 11 45 25 71 14 26 25 61 25 78 0 17 9 60 20 94 16 52 20 90 20 219 0 86 -5 172 -10 191 -6 19 -15 69 -21 110 -6 41 -19 89 -29 106 -10 17 -21 47 -25 65 -4 19 -17 50 -29 69 -13 19 -40 62 -61 94 -114 177 -390 370 -589 412 -33 7 -86 20 -116 28 -48 14 -156 16 -888 14 -571 -1 -838 -5 -848 -12z m1548 -467 c33 -10 75 -19 92 -19 17 0 42 -7 56 -15 14 -8 44 -23 68 -34 52 -25 61 -32 132 -101 71 -70 130 -158 130 -196 0 -16 10 -49 21 -74 30 -65 29 -253 0 -328 -12 -29 -21 -67 -21 -85 0 -18 -7 -43 -15 -57 -8 -14 -22 -41 -31 -59 -21 -47 -129 -178 -162 -198 -15 -9 -35 -24 -45 -32 -10 -9 -37 -21 -60 -27 -23 -7 -60 -19 -82 -27 -62 -23 -345 -37 -733 -37 -305 0 -353 2 -366 16 -14 14 -16 86 -16 648 0 482 3 635 12 644 9 9 122 11 486 6 431 -5 479 -7 534 -25z"/> <path d="M19388 3865 c-10 -16 -23 -48 -29 -70 -6 -22 -22 -63 -35 -91 -13 -28 -24 -60 -24 -72 0 -12 -11 -38 -25 -58 -14 -20 -25 -49 -25 -64 0 -15 -9 -39 -20 -52 -10 -14 -24 -47 -30 -73 -6 -26 -20 -59 -30 -73 -11 -13 -20 -35 -20 -47 0 -12 -9 -34 -20 -47 -10 -14 -24 -46 -30 -71 -5 -25 -18 -60 -29 -79 -10 -18 -22 -49 -25 -69 -3 -19 -15 -53 -26 -74 -11 -22 -20 -47 -20 -57 0 -9 -11 -38 -25 -64 -14 -26 -25 -61 -25 -79 0 -18 -11 -46 -25 -65 -14 -19 -25 -43 -25 -55 0 -11 -11 -40 -24 -65 -13 -25 -27 -63 -30 -85 -4 -22 -14 -47 -21 -55 -8 -9 -19 -38 -25 -65 -6 -27 -18 -57 -27 -67 -8 -9 -19 -38 -24 -64 -5 -26 -15 -55 -23 -63 -8 -9 -19 -34 -25 -56 -6 -22 -20 -53 -31 -70 -11 -17 -20 -47 -20 -70 0 -23 -9 -53 -20 -70 -11 -16 -25 -48 -31 -70 -6 -22 -17 -47 -25 -56 -8 -9 -18 -39 -23 -67 -4 -27 -17 -62 -29 -77 -12 -15 -22 -39 -22 -52 0 -14 -11 -38 -25 -55 -14 -16 -25 -41 -25 -55 0 -15 -11 -45 -24 -67 -13 -23 -26 -56 -30 -75 -3 -19 -13 -42 -21 -51 -8 -9 -19 -41 -25 -70 -6 -29 -17 -61 -25 -69 -7 -9 -18 -35 -23 -59 -6 -23 -17 -53 -26 -67 -9 -13 -20 -45 -26 -72 -6 -26 -18 -55 -25 -64 -8 -8 -19 -40 -25 -69 -6 -29 -17 -61 -25 -70 -8 -9 -18 -32 -21 -51 -4 -19 -18 -54 -30 -79 -13 -25 -24 -54 -24 -65 0 -12 -9 -38 -20 -60 -11 -22 -20 -45 -20 -53 0 -7 -9 -30 -20 -52 -20 -39 -26 -80 -12 -80 4 0 122 -1 262 -3 l255 -2 22 45 c12 25 26 66 32 92 6 26 20 62 31 80 11 18 20 47 20 64 0 17 9 43 21 57 11 15 24 48 28 74 4 27 17 66 28 88 28 53 73 171 73 191 0 9 8 33 18 53 10 20 25 50 33 66 l15 30 764 0 764 0 22 -33 c12 -18 25 -51 29 -75 4 -23 18 -65 31 -93 13 -28 24 -62 24 -75 0 -13 12 -46 25 -74 14 -27 25 -62 25 -77 0 -15 11 -48 25 -74 14 -26 25 -54 25 -63 0 -9 8 -30 19 -46 10 -17 24 -48 31 -70 7 -22 18 -51 25 -65 7 -14 19 -40 25 -57 l12 -33 214 -2 c118 -1 229 -2 247 -2 29 -1 32 2 35 31 3 30 -37 150 -78 238 -11 22 -24 62 -30 90 -6 27 -17 57 -25 65 -8 8 -18 36 -24 60 -6 25 -19 63 -31 85 -11 21 -20 48 -20 60 0 11 -12 43 -25 70 -14 28 -25 59 -25 70 0 11 -9 36 -19 56 -11 20 -23 54 -26 75 -4 22 -15 51 -25 65 -10 14 -24 46 -30 70 -6 24 -17 53 -25 64 -7 11 -16 36 -20 54 -4 19 -18 54 -31 79 -13 25 -24 52 -24 61 0 9 -9 32 -19 52 -11 20 -23 54 -27 75 -3 22 -14 53 -24 69 -10 17 -24 50 -30 75 -7 25 -18 52 -25 60 -6 8 -17 36 -24 62 -6 27 -20 63 -31 80 -11 18 -20 44 -20 58 0 14 -9 41 -19 61 -11 20 -25 56 -31 80 -7 24 -18 51 -26 60 -7 8 -17 31 -20 50 -4 19 -18 54 -30 79 -13 25 -24 54 -24 65 0 11 -12 38 -25 60 -14 22 -25 50 -25 63 0 13 -11 44 -25 70 -14 26 -25 53 -25 60 0 7 -11 34 -25 60 -14 26 -25 56 -25 67 0 11 -12 43 -25 70 -14 28 -25 56 -25 64 0 7 -11 34 -24 60 -13 25 -29 64 -34 86 -15 59 -42 133 -68 191 -13 28 -24 60 -24 72 0 11 -11 44 -25 74 -14 29 -25 62 -25 73 0 11 -12 38 -25 60 -14 23 -25 55 -25 75 0 20 -9 54 -20 75 -11 22 -23 57 -27 78 -3 21 -11 41 -17 43 -6 2 -116 5 -245 7 l-234 2 -19 -30z m278 -725 c6 -30 24 -86 39 -125 15 -38 33 -90 40 -115 7 -25 22 -65 34 -90 11 -25 21 -53 21 -62 0 -9 11 -38 25 -64 14 -26 25 -56 25 -68 0 -12 12 -43 25 -71 14 -27 25 -59 25 -70 0 -11 12 -42 25 -70 14 -27 25 -59 25 -70 0 -11 7 -33 16 -50 15 -29 32 -73 69 -180 10 -27 26 -68 36 -90 10 -22 24 -60 33 -85 34 -105 57 -167 70 -190 8 -14 18 -43 22 -65 4 -22 16 -53 28 -68 16 -22 18 -32 10 -45 -10 -16 -47 -17 -485 -14 -261 1 -532 2 -602 2 -142 0 -157 7 -118 56 12 15 21 34 21 43 0 9 11 39 25 66 13 28 25 61 25 75 0 14 11 46 25 72 14 26 25 58 25 71 0 13 11 44 24 68 12 25 26 65 30 91 4 25 13 51 21 58 7 6 19 34 26 63 7 28 20 65 31 82 10 16 18 39 18 50 0 11 11 43 25 70 13 28 25 57 25 65 0 8 12 38 25 65 14 28 25 61 25 75 0 14 12 43 25 65 14 22 25 49 25 60 0 11 12 43 25 70 14 28 25 59 25 70 0 11 11 41 25 67 14 26 25 54 25 63 0 9 9 33 19 53 11 21 23 56 26 77 10 52 13 57 38 53 16 -2 23 -15 33 -58z"/> <path d="M33943 3882 c-10 -11 -13 -111 -14 -500 -3 -1017 2 -3106 6 -3111 3 -2 107 -5 232 -5 216 -1 226 0 239 19 11 17 14 261 14 1351 1 732 -2 1343 -5 1357 -5 20 -3 28 9 33 23 9 63 -31 72 -70 6 -30 39 -102 82 -181 26 -48 111 -233 121 -263 5 -18 19 -45 31 -59 11 -14 20 -33 20 -42 0 -9 12 -34 25 -56 14 -22 25 -47 25 -56 0 -8 11 -30 25 -49 14 -19 25 -40 25 -46 0 -7 11 -30 25 -50 14 -20 25 -45 25 -54 0 -10 6 -23 14 -29 8 -7 21 -32 30 -57 8 -24 24 -56 35 -71 12 -14 21 -33 21 -43 0 -10 9 -28 19 -42 11 -13 23 -37 27 -53 4 -16 18 -44 31 -63 12 -19 23 -43 23 -52 0 -10 9 -29 20 -43 11 -14 20 -29 20 -33 0 -8 100 -217 121 -254 5 -8 30 -58 55 -110 26 -52 53 -102 59 -110 7 -8 18 -32 24 -52 7 -20 18 -42 26 -48 7 -6 17 -24 20 -40 3 -15 15 -36 25 -45 10 -9 22 -30 25 -46 4 -15 14 -38 24 -51 10 -13 23 -40 30 -60 7 -20 19 -42 27 -48 7 -7 14 -18 14 -24 0 -11 49 -116 77 -166 8 -14 23 -43 33 -65 11 -22 35 -68 54 -101 19 -34 37 -76 41 -94 4 -17 13 -34 21 -37 17 -6 44 14 44 34 0 15 27 77 96 218 24 50 44 95 44 101 0 5 11 25 25 44 14 19 25 41 25 51 0 9 9 27 19 41 11 13 24 42 30 65 6 23 15 45 20 48 12 7 81 143 81 159 0 8 9 25 20 39 12 14 26 41 32 59 6 18 19 44 30 57 10 13 18 31 18 41 0 9 11 34 25 54 14 20 27 47 31 61 3 13 12 29 19 35 8 6 17 26 21 43 3 18 14 43 24 57 9 14 36 63 59 110 42 84 61 121 87 170 8 14 21 41 29 60 9 19 20 42 25 50 6 8 17 31 25 50 9 19 20 42 25 50 6 8 15 26 21 40 6 14 21 46 35 73 13 26 24 53 24 60 0 7 11 29 25 49 14 20 25 42 25 49 0 11 82 188 116 249 7 14 19 36 25 50 6 14 15 34 20 45 5 11 17 34 26 50 45 84 113 246 113 269 0 21 29 41 41 29 6 -6 10 -460 9 -1326 0 -920 3 -1318 10 -1322 19 -12 474 -14 488 -3 18 15 18 3601 -1 3616 -15 13 -505 11 -525 -1 -7 -5 -19 -23 -27 -40 -9 -18 -33 -65 -55 -106 -22 -41 -40 -79 -40 -86 0 -6 -11 -26 -25 -45 -14 -19 -25 -41 -25 -49 0 -9 -7 -27 -14 -41 -29 -52 -226 -438 -245 -480 -7 -14 -18 -37 -26 -52 -8 -16 -22 -40 -30 -55 -8 -16 -19 -39 -26 -53 -30 -68 -76 -158 -91 -179 -10 -13 -18 -31 -18 -40 0 -9 -11 -33 -25 -53 -14 -20 -25 -43 -25 -51 0 -7 -11 -28 -25 -47 -14 -19 -25 -41 -25 -51 0 -9 -9 -28 -21 -43 -11 -14 -25 -43 -31 -63 -6 -21 -19 -48 -29 -62 -11 -13 -19 -30 -19 -38 0 -8 -11 -36 -24 -62 -23 -46 -65 -133 -85 -181 -6 -14 -15 -32 -20 -40 -19 -29 -81 -165 -81 -176 0 -6 -9 -19 -20 -29 -11 -10 -20 -23 -20 -30 0 -14 -58 -131 -83 -165 -9 -13 -17 -32 -17 -40 0 -9 -11 -31 -25 -50 -14 -19 -25 -41 -25 -51 0 -9 -8 -27 -19 -40 -10 -13 -24 -41 -31 -62 -16 -49 -47 -48 -72 3 -77 158 -101 208 -114 230 -7 14 -14 32 -14 41 0 8 -11 30 -25 49 -14 19 -25 40 -25 48 0 8 -9 31 -19 51 -11 20 -33 68 -50 106 -17 39 -38 81 -46 95 -30 54 -85 170 -85 181 0 6 -8 23 -18 37 -20 30 -95 185 -141 292 -6 14 -15 32 -21 40 -5 8 -16 31 -25 50 -8 19 -22 46 -29 60 -21 37 -63 132 -70 156 -4 12 -15 29 -26 39 -11 10 -20 25 -20 33 0 8 -9 31 -19 51 -38 72 -131 269 -131 278 0 5 -22 54 -50 108 -27 55 -50 105 -50 111 0 6 -8 22 -19 35 -10 13 -21 35 -25 49 -6 23 -39 96 -72 160 -44 87 -83 169 -94 197 -25 66 -19 65 -341 67 -231 1 -295 -2 -306 -12z"/> <path d="M39246 3885 l-21 -11 -3 -1094 c-1 -651 2 -1148 7 -1225 15 -196 30 -295 51 -347 11 -26 20 -60 20 -76 0 -16 9 -40 19 -54 11 -13 23 -38 27 -54 7 -29 56 -126 97 -194 43 -72 127 -177 186 -232 75 -71 237 -192 271 -203 14 -4 36 -16 49 -26 13 -11 32 -19 43 -19 10 0 37 -9 59 -21 42 -21 147 -53 229 -69 82 -16 333 -40 425 -40 98 0 285 23 380 46 33 8 83 21 110 27 52 13 180 71 190 86 2 5 17 12 32 16 37 9 99 48 187 117 70 55 108 93 171 173 17 21 39 50 51 64 22 27 39 57 74 128 11 23 25 45 30 48 5 3 14 25 21 48 6 23 17 49 25 58 8 9 18 39 23 67 4 28 16 62 25 77 9 14 24 70 32 123 8 53 19 124 24 157 6 34 10 576 10 1241 0 997 -2 1183 -14 1193 -10 8 -83 10 -262 7 -137 -2 -250 -5 -252 -5 -1 -1 -2 -544 -2 -1208 1 -1210 -2 -1330 -34 -1392 -9 -16 -18 -47 -22 -70 -4 -22 -17 -55 -30 -73 -13 -17 -24 -40 -24 -49 0 -9 -21 -43 -47 -76 -129 -161 -206 -217 -403 -289 -72 -26 -85 -27 -305 -31 -199 -4 -236 -2 -275 12 -25 9 -67 21 -95 27 -27 5 -71 20 -98 34 -26 13 -54 24 -61 24 -38 0 -218 178 -272 269 -44 72 -94 177 -94 194 0 10 -12 46 -26 80 l-27 62 -5 1240 c-2 682 -6 1242 -9 1245 -9 10 -466 5 -487 -5z"/></g></svg>
